<svg width="20" height="20" viewBox="0 0 20 20" fill="none" xmlns="http://www.w3.org/2000/svg">
<g clip-path="url(#clip0_69946_12569)">
<path d="M9.9999 1.47363C4.72506 1.47363 2.08765 5.86928 2.08765 9.38579C2.08765 12.9023 4.72506 16.4188 7.36248 17.2979V19.0562H9.12076V17.2979C9.12076 17.2979 9.9999 17.6496 10.879 17.2979V19.0562H12.6373V17.2979C15.2747 16.4188 17.9122 12.9023 17.9122 9.38579C17.9122 5.86928 15.2747 1.47363 9.9999 1.47363Z" fill="url(#paint0_linear_69946_12569)"/>
<path d="M2.9671 7.62739C0.329677 6.74826 -0.549462 8.50652 0.329677 10.2648C1.20882 12.023 2.9671 11.1439 3.84623 9.38565C4.37372 8.15487 3.84623 7.62739 2.9671 7.62739Z" fill="url(#paint1_linear_69946_12569)"/>
<path d="M17.033 7.62739C19.6704 6.74826 20.5495 8.50652 19.6704 10.2648C18.7912 12.023 17.033 11.1439 16.1538 9.38565C15.6263 8.15487 16.1538 7.62739 17.033 7.62739Z" fill="url(#paint2_linear_69946_12569)"/>
<path d="M7.36252 2.35251C6.19033 1.18033 5.31119 0.770074 4.7251 1.12173" stroke="#FF4D4D" stroke-width="0.4" stroke-linecap="round"/>
<path d="M12.6375 2.35251C13.8096 1.18033 14.6888 0.770074 15.2749 1.12173" stroke="#FF4D4D" stroke-width="0.4" stroke-linecap="round"/>
<path d="M7.36283 6.92436C7.94547 6.92436 8.4178 6.45204 8.4178 5.86941C8.4178 5.28677 7.94547 4.81445 7.36283 4.81445C6.78019 4.81445 6.30786 5.28677 6.30786 5.86941C6.30786 6.45204 6.78019 6.92436 7.36283 6.92436Z" fill="#050810"/>
<path d="M12.6377 6.92436C13.2204 6.92436 13.6927 6.45204 13.6927 5.86941C13.6927 5.28677 13.2204 4.81445 12.6377 4.81445C12.0551 4.81445 11.5828 5.28677 11.5828 5.86941C11.5828 6.45204 12.0551 6.92436 12.6377 6.92436Z" fill="#050810"/>
<path d="M7.53869 6.13303C7.78146 6.13303 7.97826 5.93624 7.97826 5.69347C7.97826 5.45071 7.78146 5.25391 7.53869 5.25391C7.29592 5.25391 7.09912 5.45071 7.09912 5.69347C7.09912 5.93624 7.29592 6.13303 7.53869 6.13303Z" fill="#00E5CC"/>
<path d="M12.8131 6.13303C13.0559 6.13303 13.2527 5.93624 13.2527 5.69347C13.2527 5.45071 13.0559 5.25391 12.8131 5.25391C12.5703 5.25391 12.3735 5.45071 12.3735 5.69347C12.3735 5.93624 12.5703 6.13303 12.8131 6.13303Z" fill="#00E5CC"/>
</g>
<defs>
<linearGradient id="paint0_linear_69946_12569" x1="2.08765" y1="1.47363" x2="19.5731" y2="17.2107" gradientUnits="userSpaceOnUse">
<stop stop-color="#FF4D4D"/>
<stop offset="1" stop-color="#991B1B"/>
</linearGradient>
<linearGradient id="paint1_linear_69946_12569" x1="0" y1="7.39355" x2="3.82328" y2="11.4435" gradientUnits="userSpaceOnUse">
<stop stop-color="#FF4D4D"/>
<stop offset="1" stop-color="#991B1B"/>
</linearGradient>
<linearGradient id="paint2_linear_69946_12569" x1="15.9434" y1="7.39355" x2="19.7666" y2="11.4435" gradientUnits="userSpaceOnUse">
<stop stop-color="#FF4D4D"/>
<stop offset="1" stop-color="#991B1B"/>
</linearGradient>
<clipPath id="clip0_69946_12569">
<rect width="20" height="20" fill="white"/>
</clipPath>
</defs>
</svg>
