<svg width="20" height="20" viewBox="0 0 20 20" fill="none" xmlns="http://www.w3.org/2000/svg">
<mask id="mask0_69946_12549" style="mask-type:luminance" maskUnits="userSpaceOnUse" x="0" y="0" width="20" height="20">
<path d="M20 0H0V20H20V0Z" fill="white"/>
</mask>
<g mask="url(#mask0_69946_12549)">
<path d="M7.6709 7.27997V5.37996C7.6709 5.21994 7.73042 5.09989 7.8691 5.01999L11.6551 2.81999C12.1705 2.52 12.785 2.38007 13.4192 2.38007C15.7977 2.38007 17.3042 4.24011 17.3042 6.22003C17.3042 6.35999 17.3042 6.52001 17.2844 6.68003L13.3597 4.35999C13.1219 4.22006 12.8839 4.22006 12.6461 4.35999L7.6709 7.27997ZM16.5113 14.68V10.1399C16.5113 9.85986 16.3923 9.65987 16.1545 9.5199L11.1793 6.59992L12.8047 5.65985C12.9434 5.57995 13.0624 5.57995 13.2011 5.65985L16.9871 7.85986C18.0773 8.49993 18.8106 9.85986 18.8106 11.1798C18.8106 12.6997 17.9187 14.0998 16.5113 14.6799V14.68ZM6.50144 10.68L4.87608 9.7201C4.7374 9.6402 4.67787 9.52011 4.67787 9.36009V4.96013C4.67787 2.82019 6.30323 1.20008 8.50347 1.20008C9.33608 1.20008 10.109 1.48014 10.7632 1.98013L6.8584 4.2602C6.62062 4.40013 6.50164 4.60012 6.50164 4.88023V10.6802L6.50144 10.68ZM9.99998 12.72L7.6709 11.4V8.60013L9.99998 7.28018L12.3289 8.60013V11.4L9.99998 12.72ZM11.4965 18.8001C10.6639 18.8001 9.89104 18.52 9.23677 18.0201L13.1416 15.74C13.3794 15.6 13.4984 15.4 13.4984 15.1199V9.31995L15.1436 10.2799C15.2823 10.3598 15.3418 10.4798 15.3418 10.6399V15.0399C15.3418 17.1798 13.6966 18.7999 11.4965 18.7999V18.8001ZM6.79875 14.3401L3.01273 12.1401C1.92246 11.5 1.18916 10.1401 1.18916 8.82018C1.18916 7.28018 2.10097 5.9002 3.50821 5.32014V9.88012C3.50821 10.1602 3.62722 10.3602 3.86501 10.5001L8.82048 13.4L7.19512 14.3401C7.05644 14.42 6.93743 14.42 6.79875 14.3401ZM6.58084 17.6201C4.34098 17.6201 2.69575 15.9201 2.69575 13.8201C2.69575 13.6601 2.71562 13.5 2.73533 13.34L6.64016 15.6201C6.87794 15.7601 7.11593 15.7601 7.35371 15.6201L12.3289 12.7202V14.6202C12.3289 14.7802 12.2694 14.9003 12.1307 14.9802L8.34471 17.1802C7.82932 17.4802 7.21483 17.6201 6.58063 17.6201H6.58084ZM11.4965 20C13.8949 20 15.8968 18.2801 16.3529 16C18.5728 15.4199 20 13.3199 20 11.18C20 9.77992 19.4054 8.42003 18.335 7.43999C18.4341 7.01995 18.4936 6.59992 18.4936 6.18009C18.4936 3.32013 16.1943 1.17999 13.5381 1.17999C13.0031 1.17999 12.4877 1.25989 11.9723 1.44C11.0802 0.559962 9.85126 0 8.50347 0C6.10506 0 4.1032 1.7199 3.64713 3.99998C1.42715 4.58003 0 6.68003 0 8.81997C0 10.22 0.594581 11.5799 1.66498 12.56C1.56587 12.98 1.50639 13.4 1.50639 13.8199C1.50639 16.6799 3.80572 18.82 6.46182 18.82C6.99691 18.82 7.5123 18.7401 8.02769 18.56C8.91959 19.44 10.1485 20 11.4965 20Z" fill="white"/>
</g>
</svg>
