<svg width="1600" height="900" viewBox="0 0 1600 900" xmlns="http://www.w3.org/2000/svg">
  <defs><linearGradient id="bg" x1="0" y1="0" x2="1" y2="1"><stop stop-color="#00c78a"/><stop offset="1" stop-color="#008a66"/></linearGradient><filter id="s"><feDropShadow dx="0" dy="24" stdDeviation="28" flood-opacity=".22"/></filter></defs>
  <rect width="1600" height="900" fill="url(#bg)"/>
  <text x="90" y="190" font-family="Inter,Arial,sans-serif" font-size="82" font-weight="800" fill="#fff">ChatGPT vs</text>
  <text x="90" y="300" font-family="Inter,Arial,sans-serif" font-size="82" font-weight="800" fill="#fff">Claude vs</text>
  <text x="90" y="410" font-family="Inter,Arial,sans-serif" font-size="82" font-weight="800" fill="#fff">Gemini for</text>
  <text x="90" y="520" font-family="Inter,Arial,sans-serif" font-size="82" font-weight="800" fill="#fff">Marketing:</text>
  <text x="90" y="630" font-family="Inter,Arial,sans-serif" font-size="66" font-weight="500" fill="#fff">Which AI Should</text>
  <text x="90" y="720" font-family="Inter,Arial,sans-serif" font-size="66" font-weight="500" fill="#fff">You Use in 2026?</text>
  <g transform="translate(900 78)" filter="url(#s)">
    <ellipse cx="310" cy="356" rx="205" ry="236" fill="#f7eddc"/><ellipse cx="310" cy="356" rx="170" ry="190" fill="#b7f5ee"/><ellipse cx="310" cy="356" rx="142" ry="157" fill="#fff7ed"/><circle cx="245" cy="345" r="18" fill="#07111f"/><circle cx="365" cy="345" r="18" fill="#07111f"/><circle cx="251" cy="339" r="6" fill="#fff"/><circle cx="371" cy="339" r="6" fill="#fff"/><path d="M230 275c40-60 130-65 170-5-65-24-118-18-170 5z" fill="#a271f2"/><path d="M268 420c38 24 80 24 116 0" stroke="#ec6f91" stroke-width="10" fill="none" stroke-linecap="round"/><circle cx="108" cy="344" r="48" fill="#9b72ed"/><circle cx="512" cy="344" r="48" fill="#9b72ed"/><circle cx="310" cy="665" r="145" fill="#f7eddc"/><circle cx="310" cy="590" r="48" fill="#fff"/><path d="M296 606l30-40 38 55" stroke="#21c7b2" stroke-width="16" fill="none" stroke-linecap="round" stroke-linejoin="round"/>
    <rect x="-70" y="375" width="310" height="385" rx="34" fill="#fff7ed" stroke="#9b72ed" stroke-width="18" transform="rotate(-8)"/><rect x="-8" y="368" width="120" height="42" rx="12" fill="#ff7f93" transform="rotate(-8)"/><rect x="0" y="450" width="78" height="78" rx="14" fill="#24c5a9" transform="rotate(-8)"/><path d="M20 488c18-18 36-18 54 0" stroke="#fff" stroke-width="9" fill="none" transform="rotate(-8)"/><rect x="0" y="548" width="78" height="78" rx="14" fill="#ff916f" transform="rotate(-8)"/><text x="22" y="602" font-family="Arial" font-size="34" font-weight="800" fill="#111" transform="rotate(-8)">AI</text><rect x="0" y="646" width="78" height="78" rx="14" fill="#7367ff" transform="rotate(-8)"/><path d="M39 662l16 30 30 16-30 16-16 30-16-30-30-16 30-16z" fill="#fff" transform="rotate(-8)"/><path d="M110 485l32 32 62-70" stroke="#33cdb7" stroke-width="14" fill="none" stroke-linecap="round" stroke-linejoin="round" transform="rotate(-8)"/><path d="M112 585l32 32 62-70" stroke="#ff7f73" stroke-width="14" fill="none" stroke-linecap="round" stroke-linejoin="round" transform="rotate(-8)"/><path d="M112 685l32 32 62-70" stroke="#b46bf2" stroke-width="14" fill="none" stroke-linecap="round" stroke-linejoin="round" transform="rotate(-8)"/>
  </g>
</svg>
