<svg width="1600" height="900" viewBox="0 0 1600 900" xmlns="http://www.w3.org/2000/svg"><defs><linearGradient id="bg" x1="0" y1="0" x2="1" y2="1"><stop stop-color="#ff9a18"/><stop offset="1" stop-color="#f36b21"/></linearGradient><filter id="s"><feDropShadow dx="0" dy="24" stdDeviation="26" flood-opacity=".22"/></filter></defs><rect width="1600" height="900" fill="url(#bg)"/><text x="80" y="170" font-family="Inter,Arial,sans-serif" font-size="82" font-weight="800" fill="#fff">ChatGPT Plus</text><text x="80" y="280" font-family="Inter,Arial,sans-serif" font-size="82" font-weight="800" fill="#fff">vs AI</text><text x="80" y="390" font-family="Inter,Arial,sans-serif" font-size="82" font-weight="800" fill="#fff">Marketing</text><text x="80" y="500" font-family="Inter,Arial,sans-serif" font-size="82" font-weight="800" fill="#fff">Platform:</text><text x="80" y="610" font-family="Inter,Arial,sans-serif" font-size="66" font-weight="500" fill="#fff">What Is Better</text><text x="80" y="700" font-family="Inter,Arial,sans-serif" font-size="66" font-weight="500" fill="#fff">for Small Teams?</text><g transform="translate(900 80)" filter="url(#s)"><ellipse cx="310" cy="350" rx="210" ry="240" fill="#fff1dd"/><ellipse cx="310" cy="350" rx="170" ry="190" fill="#b7f5ee"/><ellipse cx="310" cy="350" rx="140" ry="155" fill="#fff6ea"/><path d="M230 275c55-70 140-60 178-5-68-22-118-19-178 5z" fill="#a271f2"/><circle cx="245" cy="340" r="18" fill="#07111f"/><circle cx="365" cy="340" r="18" fill="#07111f"/><path d="M270 420c35 25 80 25 115 0" stroke="#ec6f91" stroke-width="10" fill="none" stroke-linecap="round"/><circle cx="108" cy="340" r="48" fill="#9b72ed"/><circle cx="512" cy="340" r="48" fill="#9b72ed"/><circle cx="310" cy="650" r="145" fill="#fff1dd"/><circle cx="310" cy="580" r="48" fill="#fff"/><path d="M296 596l30-40 38 55" stroke="#21c7b2" stroke-width="16" fill="none" stroke-linecap="round"/><rect x="-65" y="382" width="185" height="280" rx="26" fill="#fff8ec" stroke="#22c7b6" stroke-width="14"/><rect x="-35" y="414" width="120" height="54" rx="12" fill="#23bea8"/><text x="-17" y="448" font-family="Arial" font-size="24" font-weight="800" fill="#fff">Plus</text><path d="M-25 560l25 25 48-58" stroke="#22c7b6" stroke-width="10" fill="none"/><rect x="120" y="382" width="185" height="280" rx="26" fill="#fff8ec" stroke="#ff8d7e" stroke-width="14"/><rect x="150" y="414" width="120" height="54" rx="12" fill="#ff8d7e"/><text x="178" y="448" font-family="Arial" font-size="24" font-weight="800" fill="#fff">AI</text><rect x="185" y="530" width="22" height="65" fill="#9b72ed" rx="6"/><rect x="218" y="500" width="22" height="95" fill="#21c7b2" rx="6"/><rect x="252" y="470" width="22" height="125" fill="#ff8d7e" rx="6"/><circle cx="120" cy="520" r="38" fill="#8b5cf6"/><text x="94" y="533" font-family="Arial" font-size="34" font-weight="800" fill="#fff">VS</text></g></svg>