<svg width="1600" height="900" viewBox="0 0 1600 900" xmlns="http://www.w3.org/2000/svg"><defs><linearGradient id="bg" x1="0" y1="0" x2="1" y2="1"><stop stop-color="#f02bb6"/><stop offset="1" stop-color="#b715d8"/></linearGradient><filter id="s"><feDropShadow dx="0" dy="24" stdDeviation="26" flood-opacity=".22"/></filter></defs><rect width="1600" height="900" fill="url(#bg)"/><text x="90" y="210" font-family="Inter,Arial,sans-serif" font-size="78" font-weight="800" fill="#fff">How to Automate</text><text x="90" y="320" font-family="Inter,Arial,sans-serif" font-size="78" font-weight="800" fill="#fff">Marketing</text><text x="90" y="430" font-family="Inter,Arial,sans-serif" font-size="78" font-weight="800" fill="#fff">with AI</text><text x="90" y="540" font-family="Inter,Arial,sans-serif" font-size="66" font-weight="500" fill="#fff">Without Losing</text><text x="90" y="640" font-family="Inter,Arial,sans-serif" font-size="66" font-weight="500" fill="#fff">Brand Quality</text><g transform="translate(910 85)" filter="url(#s)"><ellipse cx="310" cy="350" rx="210" ry="240" fill="#fff1dd"/><ellipse cx="310" cy="350" rx="170" ry="190" fill="#b7f5ee"/><ellipse cx="310" cy="350" rx="140" ry="155" fill="#fff6ea"/><path d="M225 278c56-70 145-62 180-4-70-24-122-18-180 4z" fill="#a271f2"/><circle cx="245" cy="340" r="18" fill="#07111f"/><circle cx="365" cy="340" r="18" fill="#07111f"/><circle cx="251" cy="334" r="6" fill="#fff"/><circle cx="371" cy="334" r="6" fill="#fff"/><path d="M270 420c35 25 80 25 115 0" stroke="#ec6f91" stroke-width="10" fill="none" stroke-linecap="round"/><circle cx="108" cy="340" r="48" fill="#9b72ed"/><circle cx="512" cy="340" r="48" fill="#9b72ed"/><circle cx="310" cy="650" r="145" fill="#fff1dd"/><circle cx="310" cy="580" r="48" fill="#fff"/><path d="M296 596l30-40 38 55" stroke="#21c7b2" stroke-width="16" fill="none" stroke-linecap="round"/><rect x="-70" y="400" width="270" height="330" rx="30" fill="#fff8ec" stroke="#9b72ed" stroke-width="16" transform="rotate(-8)"/><rect x="-20" y="455" width="70" height="70" rx="14" fill="#d946ef" transform="rotate(-8)"/><text x="-4" y="503" font-family="Arial" font-size="32" font-weight="800" fill="#fff" transform="rotate(-8)">AI</text><rect x="-20" y="550" width="70" height="70" rx="14" fill="#22c7b6" transform="rotate(-8)"/><rect x="-8" y="585" width="15" height="24" fill="#fff" transform="rotate(-8)"/><rect x="16" y="565" width="15" height="44" fill="#fff" transform="rotate(-8)"/><rect x="40" y="540" width="15" height="69" fill="#fff" transform="rotate(-8)"/><path d="M80 480l32 32 62-70M80 585l32 32 62-70M80 680l32 32 62-70" stroke="#22c7b6" stroke-width="12" fill="none" stroke-linecap="round" stroke-linejoin="round" transform="rotate(-8)"/><circle cx="415" cy="600" r="85" fill="#8b5cf6"/><circle cx="415" cy="600" r="48" fill="#fff8ec"/><path d="M392 600l22 22 42-52" stroke="#22c7b6" stroke-width="14" fill="none" stroke-linecap="round" stroke-linejoin="round"/></g></svg>