<svg width="1600" height="900" viewBox="0 0 1600 900" xmlns="http://www.w3.org/2000/svg"><defs><linearGradient id="bg" x1="0" y1="0" x2="1" y2="1"><stop stop-color="#00cfc1"/><stop offset="1" stop-color="#0093a7"/></linearGradient><filter id="s"><feDropShadow dx="0" dy="24" stdDeviation="26" flood-opacity=".22"/></filter></defs><rect width="1600" height="900" fill="url(#bg)"/><text x="90" y="210" font-family="Inter,Arial,sans-serif" font-size="82" font-weight="800" fill="#fff">AI Customer</text><text x="90" y="320" font-family="Inter,Arial,sans-serif" font-size="82" font-weight="800" fill="#fff">Engagement:</text><text x="90" y="430" font-family="Inter,Arial,sans-serif" font-size="62" font-weight="500" fill="#fff">How Brands Can</text><text x="90" y="530" font-family="Inter,Arial,sans-serif" font-size="62" font-weight="500" fill="#fff">Create Better</text><text x="90" y="630" font-family="Inter,Arial,sans-serif" font-size="62" font-weight="500" fill="#fff">Conversations</text><text x="90" y="730" font-family="Inter,Arial,sans-serif" font-size="62" font-weight="500" fill="#fff">at Scale</text><g transform="translate(900 80)" filter="url(#s)"><ellipse cx="310" cy="350" rx="210" ry="240" fill="#fff1dd"/><ellipse cx="310" cy="350" rx="170" ry="190" fill="#b7f5ee"/><ellipse cx="310" cy="350" rx="140" ry="155" fill="#fff6ea"/><path d="M225 278c56-70 145-62 180-4-70-24-122-18-180 4z" fill="#a271f2"/><circle cx="245" cy="340" r="18" fill="#07111f"/><circle cx="365" cy="340" r="18" fill="#07111f"/><circle cx="251" cy="334" r="6" fill="#fff"/><circle cx="371" cy="334" r="6" fill="#fff"/><path d="M270 420c35 25 80 25 115 0" stroke="#ec6f91" stroke-width="10" fill="none" stroke-linecap="round"/><circle cx="108" cy="340" r="48" fill="#9b72ed"/><circle cx="512" cy="340" r="48" fill="#9b72ed"/><circle cx="310" cy="650" r="145" fill="#fff1dd"/><circle cx="310" cy="580" r="48" fill="#fff"/><path d="M296 596l30-40 38 55" stroke="#21c7b2" stroke-width="16" fill="none" stroke-linecap="round"/><circle cx="35" cy="560" r="88" fill="#9b72ed"/><circle cx="35" cy="560" r="62" fill="#b7f5ee" opacity=".8"/><rect x="385" y="500" width="240" height="150" rx="34" fill="#fff8ec"/><circle cx="455" cy="575" r="14" fill="#9b72ed"/><circle cx="505" cy="575" r="14" fill="#9b72ed"/><circle cx="555" cy="575" r="14" fill="#9b72ed"/><path d="M385 625l-55 35 24-70" fill="#fff8ec"/></g></svg>