<svg width="1600" height="900" viewBox="0 0 1600 900" xmlns="http://www.w3.org/2000/svg"><defs><linearGradient id="bg" x1="0" y1="0" x2="1" y2="1"><stop stop-color="#0b7cff"/><stop offset="1" stop-color="#0047c7"/></linearGradient><filter id="s"><feDropShadow dx="0" dy="24" stdDeviation="26" flood-opacity=".22"/></filter></defs><rect width="1600" height="900" fill="url(#bg)"/><text x="80" y="190" font-family="Inter,Arial,sans-serif" font-size="84" font-weight="800" fill="#fff">10 Business</text><text x="80" y="310" font-family="Inter,Arial,sans-serif" font-size="84" font-weight="800" fill="#fff">Process</text><text x="80" y="430" font-family="Inter,Arial,sans-serif" font-size="84" font-weight="800" fill="#fff">Automation</text><text x="80" y="550" font-family="Inter,Arial,sans-serif" font-size="84" font-weight="800" fill="#fff">Examples for</text><text x="80" y="670" font-family="Inter,Arial,sans-serif" font-size="84" font-weight="800" fill="#fff">Marketing Teams</text><g transform="translate(900 75)" filter="url(#s)"><ellipse cx="310" cy="350" rx="210" ry="240" fill="#fff1dd"/><ellipse cx="310" cy="350" rx="170" ry="190" fill="#b7f5ee"/><ellipse cx="310" cy="350" rx="140" ry="155" fill="#fff6ea"/><path d="M225 278c56-70 145-62 180-4-70-24-122-18-180 4z" fill="#a271f2"/><circle cx="245" cy="340" r="18" fill="#07111f"/><circle cx="365" cy="340" r="18" fill="#07111f"/><circle cx="251" cy="334" r="6" fill="#fff"/><circle cx="371" cy="334" r="6" fill="#fff"/><path d="M270 420c35 25 80 25 115 0" stroke="#ec6f91" stroke-width="10" fill="none" stroke-linecap="round"/><circle cx="108" cy="340" r="48" fill="#9b72ed"/><circle cx="512" cy="340" r="48" fill="#9b72ed"/><circle cx="310" cy="650" r="145" fill="#fff1dd"/><circle cx="310" cy="580" r="48" fill="#fff"/><path d="M296 596l30-40 38 55" stroke="#21c7b2" stroke-width="16" fill="none" stroke-linecap="round"/><rect x="-80" y="590" width="330" height="210" rx="20" fill="#f2efff"/><text x="20" y="705" font-family="Arial" font-size="44" font-weight="800" fill="#8b5cf6">LORALOOP</text><rect x="445" y="450" width="190" height="360" rx="34" fill="#76b7ff" opacity=".75"/><rect x="495" y="500" width="78" height="78" rx="16" fill="#fff"/><path d="M515 538h40" stroke="#8b5cf6" stroke-width="12"/><circle cx="600" cy="538" r="22" fill="none" stroke="#fff" stroke-width="10"/><rect x="495" y="610" width="78" height="78" rx="16" fill="#fff"/><path d="M512 650h45" stroke="#22c7b6" stroke-width="12"/><rect x="495" y="720" width="78" height="78" rx="16" fill="#fff"/><rect x="512" y="762" width="14" height="22" fill="#8b5cf6"/><rect x="536" y="742" width="14" height="42" fill="#8b5cf6"/><rect x="560" y="722" width="14" height="62" fill="#8b5cf6"/></g></svg>