<svg width="1600" height="900" viewBox="0 0 1600 900" xmlns="http://www.w3.org/2000/svg"><defs><linearGradient id="bg" x1="0" y1="0" x2="1" y2="1"><stop stop-color="#d5ff35"/><stop offset="1" stop-color="#41c96b"/></linearGradient><filter id="s"><feDropShadow dx="0" dy="24" stdDeviation="26" flood-opacity=".22"/></filter></defs><rect width="1600" height="900" fill="url(#bg)"/><text x="90" y="190" font-family="Inter,Arial,sans-serif" font-size="78" font-weight="800" fill="#fff">How to Use AI</text><text x="90" y="300" font-family="Inter,Arial,sans-serif" font-size="78" font-weight="800" fill="#fff">for Lead</text><text x="90" y="410" font-family="Inter,Arial,sans-serif" font-size="78" font-weight="800" fill="#fff">Generation</text><text x="90" y="520" font-family="Inter,Arial,sans-serif" font-size="78" font-weight="800" fill="#fff">Through</text><text x="90" y="630" font-family="Inter,Arial,sans-serif" font-size="78" font-weight="800" fill="#fff">Content, SEO,</text><text x="90" y="740" font-family="Inter,Arial,sans-serif" font-size="78" font-weight="800" fill="#fff">and Social</text><g transform="translate(900 75)" filter="url(#s)"><ellipse cx="310" cy="350" rx="210" ry="240" fill="#fff1dd"/><ellipse cx="310" cy="350" rx="170" ry="190" fill="#b7f5ee"/><ellipse cx="310" cy="350" rx="140" ry="155" fill="#fff6ea"/><path d="M225 278c56-70 145-62 180-4-70-24-122-18-180 4z" fill="#a271f2"/><circle cx="245" cy="340" r="18" fill="#07111f"/><circle cx="365" cy="340" r="18" fill="#07111f"/><circle cx="251" cy="334" r="6" fill="#fff"/><circle cx="371" cy="334" r="6" fill="#fff"/><path d="M270 420c35 25 80 25 115 0" stroke="#ec6f91" stroke-width="10" fill="none" stroke-linecap="round"/><circle cx="108" cy="340" r="48" fill="#9b72ed"/><circle cx="512" cy="340" r="48" fill="#9b72ed"/><circle cx="310" cy="650" r="145" fill="#fff1dd"/><circle cx="310" cy="580" r="48" fill="#fff"/><path d="M296 596l30-40 38 55" stroke="#21c7b2" stroke-width="16" fill="none" stroke-linecap="round"/><rect x="-70" y="410" width="285" height="350" rx="28" fill="#fff8ec" stroke="#9b72ed" stroke-width="16" transform="rotate(-7)"/><rect x="-20" y="455" width="70" height="70" rx="14" fill="#24c5a9" transform="rotate(-7)"/><circle cx="15" cy="488" r="18" fill="#fff" transform="rotate(-7)"/><path d="M70 620h70M70 580h120M70 540h160" stroke="#c6c2c2" stroke-width="10" stroke-linecap="round" transform="rotate(-7)"/><rect x="5" y="685" width="22" height="52" fill="#24c5a9" rx="6" transform="rotate(-7)"/><rect x="42" y="645" width="22" height="92" fill="#24c5a9" rx="6" transform="rotate(-7)"/><rect x="80" y="605" width="22" height="132" fill="#24c5a9" rx="6" transform="rotate(-7)"/><path d="M0 650l80-80 85 20" stroke="#8b5cf6" stroke-width="12" fill="none" transform="rotate(-7)"/><path d="M405 570c-58 0-105 47-105 105s47 105 105 105 105-47 105-105-47-105-105-105zm0 45a60 60 0 110 120 60 60 0 010-120z" fill="#8b5cf6"/><rect x="395" y="515" width="36" height="190" rx="18" fill="#8b5cf6" transform="rotate(-40 413 610)"/><path d="M520 520l25 36 43-92" stroke="#ffe45e" stroke-width="14" fill="none" stroke-linecap="round"/></g></svg>