<svg width="1600" height="900" viewBox="0 0 1600 900" xmlns="http://www.w3.org/2000/svg"><defs><linearGradient id="bg" x1="0" y1="0" x2="1" y2="1"><stop stop-color="#5b2fd6"/><stop offset="1" stop-color="#20115f"/></linearGradient><filter id="s"><feDropShadow dx="0" dy="24" stdDeviation="26" flood-opacity=".22"/></filter></defs><rect width="1600" height="900" fill="url(#bg)"/><text x="70" y="180" font-family="Inter,Arial,sans-serif" font-size="70" font-weight="800" fill="#fff">AI for Directors</text><text x="70" y="280" font-family="Inter,Arial,sans-serif" font-size="70" font-weight="800" fill="#fff">and Managers:</text><text x="70" y="390" font-family="Inter,Arial,sans-serif" font-size="62" font-weight="500" fill="#fff">How to Delegate</text><text x="70" y="490" font-family="Inter,Arial,sans-serif" font-size="62" font-weight="500" fill="#fff">Marketing</text><text x="70" y="590" font-family="Inter,Arial,sans-serif" font-size="62" font-weight="500" fill="#fff">Execution</text><text x="70" y="690" font-family="Inter,Arial,sans-serif" font-size="62" font-weight="500" fill="#fff">Without Losing</text><text x="70" y="790" font-family="Inter,Arial,sans-serif" font-size="62" font-weight="500" fill="#fff">Control</text><g transform="translate(890 75)" filter="url(#s)"><ellipse cx="310" cy="350" rx="210" ry="240" fill="#fff1dd"/><ellipse cx="310" cy="350" rx="170" ry="190" fill="#b7f5ee"/><ellipse cx="310" cy="350" rx="140" ry="155" fill="#fff6ea"/><path d="M225 278c56-70 145-62 180-4-70-24-122-18-180 4z" fill="#a271f2"/><circle cx="245" cy="340" r="18" fill="#07111f"/><circle cx="365" cy="340" r="18" fill="#07111f"/><circle cx="251" cy="334" r="6" fill="#fff"/><circle cx="371" cy="334" r="6" fill="#fff"/><path d="M270 420c35 25 80 25 115 0" stroke="#ec6f91" stroke-width="10" fill="none" stroke-linecap="round"/><circle cx="108" cy="340" r="48" fill="#9b72ed"/><circle cx="512" cy="340" r="48" fill="#9b72ed"/><circle cx="310" cy="650" r="145" fill="#fff1dd"/><circle cx="310" cy="580" r="48" fill="#fff"/><path d="M296 596l30-40 38 55" stroke="#21c7b2" stroke-width="16" fill="none" stroke-linecap="round"/><rect x="-60" y="405" width="350" height="410" rx="32" fill="#fff8ec" stroke="#9b72ed" stroke-width="16" transform="rotate(-6)"/><text x="-20" y="465" font-family="Arial" font-size="25" font-weight="800" fill="#4c1d95" transform="rotate(-6)">Execution Overview</text><g transform="rotate(-6)"><rect x="-20" y="500" width="280" height="44" rx="14" fill="#f5f1ff"/><rect x="-12" y="506" width="32" height="32" rx="8" fill="#8b5cf6"/><text x="115" y="530" font-family="Arial" font-size="18" fill="#1f2937">Campaign Brief</text><rect x="185" y="508" width="66" height="28" rx="14" fill="#c7f4df"/><rect x="-20" y="570" width="280" height="44" rx="14" fill="#f5f1ff"/><rect x="-12" y="576" width="32" height="32" rx="8" fill="#21c7b2"/><text x="42" y="600" font-family="Arial" font-size="18" fill="#1f2937">Content</text><rect x="185" y="578" width="66" height="28" rx="14" fill="#fef3c7"/><rect x="-20" y="640" width="280" height="44" rx="14" fill="#f5f1ff"/><rect x="-12" y="646" width="32" height="32" rx="8" fill="#ff7f73"/><text x="42" y="670" font-family="Arial" font-size="18" fill="#1f2937">Paid Media</text><rect x="185" y="648" width="66" height="28" rx="14" fill="#c7f4df"/><rect x="0" y="725" width="70" height="58" rx="12" fill="#f5f1ff"/><path d="M15 765l15-30 15 18 15-35" stroke="#21c7b2" stroke-width="7" fill="none"/><rect x="90" y="725" width="70" height="58" rx="12" fill="#f5f1ff"/><rect x="105" y="758" width="9" height="16" fill="#8b5cf6"/><rect x="120" y="745" width="9" height="29" fill="#8b5cf6"/><rect x="135" y="735" width="9" height="39" fill="#8b5cf6"/></g></g></svg>