<svg width="1600" height="900" viewBox="0 0 1600 900" xmlns="http://www.w3.org/2000/svg"><defs><linearGradient id="bg" x1="0" y1="0" x2="1" y2="1"><stop stop-color="#09c7f7"/><stop offset="1" stop-color="#00a5d4"/></linearGradient><filter id="s"><feDropShadow dx="0" dy="24" stdDeviation="26" flood-opacity=".22"/></filter></defs><rect width="1600" height="900" fill="url(#bg)"/><text x="90" y="230" font-family="Inter,Arial,sans-serif" font-size="80" font-weight="800" fill="#fff">AI Workflows</text><text x="90" y="340" font-family="Inter,Arial,sans-serif" font-size="80" font-weight="800" fill="#fff">Explained:</text><text x="90" y="460" font-family="Inter,Arial,sans-serif" font-size="70" font-weight="800" fill="#fff">A Simple Guide</text><text x="90" y="580" font-family="Inter,Arial,sans-serif" font-size="70" font-weight="800" fill="#fff">for Marketing</text><text x="90" y="700" font-family="Inter,Arial,sans-serif" font-size="70" font-weight="800" fill="#fff">Teams</text><g transform="translate(895 75)" filter="url(#s)"><ellipse cx="310" cy="350" rx="210" ry="240" fill="#fff1dd"/><ellipse cx="310" cy="350" rx="170" ry="190" fill="#b7f5ee"/><ellipse cx="310" cy="350" rx="140" ry="155" fill="#fff6ea"/><path d="M225 278c56-70 145-62 180-4-70-24-122-18-180 4z" fill="#a271f2"/><circle cx="245" cy="340" r="18" fill="#07111f"/><circle cx="365" cy="340" r="18" fill="#07111f"/><circle cx="251" cy="334" r="6" fill="#fff"/><circle cx="371" cy="334" r="6" fill="#fff"/><path d="M270 420c35 25 80 25 115 0" stroke="#ec6f91" stroke-width="10" fill="none" stroke-linecap="round"/><circle cx="108" cy="340" r="48" fill="#9b72ed"/><circle cx="512" cy="340" r="48" fill="#9b72ed"/><circle cx="310" cy="650" r="145" fill="#fff1dd"/><circle cx="310" cy="580" r="48" fill="#fff"/><path d="M296 596l30-40 38 55" stroke="#21c7b2" stroke-width="16" fill="none" stroke-linecap="round"/><rect x="-75" y="355" width="330" height="470" rx="38" fill="#fff8ec" stroke="#9b72ed" stroke-width="16" transform="rotate(-7)"/><g transform="rotate(-7)"><rect x="45" y="410" width="86" height="72" rx="18" fill="#24c5a9"/><path d="M75 432h25M75 452h36M75 472h30" stroke="#fff" stroke-width="7" stroke-linecap="round"/><path d="M88 492v42" stroke="#9b72ed" stroke-width="8"/><rect x="45" y="535" width="86" height="72" rx="18" fill="#9b72ed"/><path d="M88 548l16 30 30 16-30 16-16 30-16-30-30-16 30-16z" fill="#fff"/><path d="M88 617v42M88 660c-70 0-100 28-100 58M88 660c0 58 0 58 0 58M88 660c70 0 100 28 100 58" stroke="#9b72ed" stroke-width="8" fill="none"/><rect x="-45" y="710" width="70" height="70" rx="16" fill="#ff7f73"/><circle cx="-10" cy="745" r="14" fill="#fff"/><circle cx="-28" cy="760" r="12" fill="#fff"/><circle cx="8" cy="760" r="12" fill="#fff"/><rect x="53" y="710" width="70" height="70" rx="16" fill="#65a9ff"/><path d="M65 735l24 20 24-20" stroke="#fff" stroke-width="8" fill="none"/><rect x="150" y="710" width="70" height="70" rx="16" fill="#f4bd43"/><rect x="168" y="750" width="10" height="18" fill="#fff"/><rect x="185" y="735" width="10" height="33" fill="#fff"/><rect x="202" y="720" width="10" height="48" fill="#fff"/><path d="M88 790v45" stroke="#9b72ed" stroke-width="8"/><rect x="45" y="835" width="86" height="72" rx="18" fill="#24c5a9"/><path d="M68 870l18 18 36-44" stroke="#fff" stroke-width="10" fill="none" stroke-linecap="round"/></g></g></svg>