<svg width="1600" height="900" viewBox="0 0 1600 900" xmlns="http://www.w3.org/2000/svg"><defs><linearGradient id="bg" x1="0" y1="0" x2="1" y2="1"><stop stop-color="#e54cf8"/><stop offset="1" stop-color="#8b2bd6"/></linearGradient><filter id="s"><feDropShadow dx="0" dy="24" stdDeviation="26" flood-opacity=".22"/></filter></defs><rect width="1600" height="900" fill="url(#bg)"/><text x="90" y="190" font-family="Inter,Arial,sans-serif" font-size="82" font-weight="800" fill="#fff">Best AI</text><text x="90" y="300" font-family="Inter,Arial,sans-serif" font-size="82" font-weight="800" fill="#fff">Social Media</text><text x="90" y="410" font-family="Inter,Arial,sans-serif" font-size="82" font-weight="800" fill="#fff">Tools for</text><text x="90" y="520" font-family="Inter,Arial,sans-serif" font-size="82" font-weight="800" fill="#fff">Small</text><text x="90" y="630" font-family="Inter,Arial,sans-serif" font-size="82" font-weight="800" fill="#fff">Businesses</text><text x="90" y="740" font-family="Inter,Arial,sans-serif" font-size="82" font-weight="800" fill="#fff">in 2026</text><g transform="translate(895 75)" filter="url(#s)"><ellipse cx="310" cy="350" rx="210" ry="240" fill="#fff1dd"/><ellipse cx="310" cy="350" rx="170" ry="190" fill="#b7f5ee"/><ellipse cx="310" cy="350" rx="140" ry="155" fill="#fff6ea"/><path d="M225 278c56-70 145-62 180-4-70-24-122-18-180 4z" fill="#a271f2"/><circle cx="245" cy="340" r="18" fill="#07111f"/><circle cx="365" cy="340" r="18" fill="#07111f"/><circle cx="251" cy="334" r="6" fill="#fff"/><circle cx="371" cy="334" r="6" fill="#fff"/><path d="M270 420c35 25 80 25 115 0" stroke="#ec6f91" stroke-width="10" fill="none" stroke-linecap="round"/><circle cx="108" cy="340" r="48" fill="#9b72ed"/><circle cx="512" cy="340" r="48" fill="#9b72ed"/><circle cx="310" cy="650" r="145" fill="#fff1dd"/><circle cx="310" cy="580" r="48" fill="#fff"/><path d="M296 596l30-40 38 55" stroke="#21c7b2" stroke-width="16" fill="none" stroke-linecap="round"/><rect x="-50" y="440" width="200" height="360" rx="34" fill="#fff8ec" stroke="#24c5a9" stroke-width="14" transform="rotate(-10)"/><rect x="-15" y="485" width="120" height="80" rx="16" fill="#ff7f73" transform="rotate(-10)"/><path d="M45 515c25-35 75 0 0 42-75-42-25-77 0-42z" fill="#fff" transform="rotate(-10)"/><rect x="-15" y="595" width="120" height="85" rx="16" fill="#9b72ed" transform="rotate(-10)"/><rect x="15" y="647" width="16" height="24" fill="#fff" transform="rotate(-10)"/><rect x="42" y="625" width="16" height="46" fill="#fff" transform="rotate(-10)"/><rect x="70" y="605" width="16" height="66" fill="#fff" transform="rotate(-10)"/><rect x="-15" y="715" width="120" height="18" rx="9" fill="#ddd" transform="rotate(-10)"/><rect x="-15" y="748" width="80" height="18" rx="9" fill="#ddd" transform="rotate(-10)"/><rect x="250" y="385" width="90" height="80" rx="18" fill="#9b72ed"/><text x="276" y="442" font-family="Arial" font-size="52" font-weight="800" fill="#fff">#</text><rect x="-155" y="585" width="100" height="80" rx="18" fill="#ff7f73"/><path d="M-105 615c22-30 60 0 0 36-60-36-22-66 0-36z" fill="#fff"/><rect x="-130" y="735" width="100" height="80" rx="18" fill="#24c5a9"/><path d="M-88 774l18-34 10 7-8 16h28v12l-10 25h-38z" fill="#fff"/></g></svg>