<svg width="1600" height="900" viewBox="0 0 1600 900" xmlns="http://www.w3.org/2000/svg"><defs><linearGradient id="bg" x1="0" y1="0" x2="1" y2="1"><stop stop-color="#00b7c7"/><stop offset="1" stop-color="#007f9e"/></linearGradient><filter id="s"><feDropShadow dx="0" dy="24" stdDeviation="26" flood-opacity=".22"/></filter></defs><rect width="1600" height="900" fill="url(#bg)"/><text x="90" y="190" font-family="Inter,Arial,sans-serif" font-size="76" font-weight="800" fill="#fff">AI Email</text><text x="90" y="300" font-family="Inter,Arial,sans-serif" font-size="76" font-weight="800" fill="#fff">Marketing for</text><text x="90" y="410" font-family="Inter,Arial,sans-serif" font-size="76" font-weight="800" fill="#fff">Small Businesses:</text><text x="90" y="520" font-family="Inter,Arial,sans-serif" font-size="76" font-weight="800" fill="#fff">Campaigns,</text><text x="90" y="630" font-family="Inter,Arial,sans-serif" font-size="76" font-weight="800" fill="#fff">Newsletters,</text><text x="90" y="740" font-family="Inter,Arial,sans-serif" font-size="76" font-weight="800" fill="#fff">and Flows</text><g transform="translate(895 75)" filter="url(#s)"><ellipse cx="310" cy="350" rx="210" ry="240" fill="#fff1dd"/><ellipse cx="310" cy="350" rx="170" ry="190" fill="#b7f5ee"/><ellipse cx="310" cy="350" rx="140" ry="155" fill="#fff6ea"/><path d="M225 278c56-70 145-62 180-4-70-24-122-18-180 4z" fill="#a271f2"/><circle cx="245" cy="340" r="18" fill="#07111f"/><circle cx="365" cy="340" r="18" fill="#07111f"/><circle cx="251" cy="334" r="6" fill="#fff"/><circle cx="371" cy="334" r="6" fill="#fff"/><path d="M270 420c35 25 80 25 115 0" stroke="#ec6f91" stroke-width="10" fill="none" stroke-linecap="round"/><circle cx="108" cy="340" r="48" fill="#9b72ed"/><circle cx="512" cy="340" r="48" fill="#9b72ed"/><circle cx="310" cy="650" r="145" fill="#fff1dd"/><circle cx="310" cy="580" r="48" fill="#fff"/><path d="M296 596l30-40 38 55" stroke="#21c7b2" stroke-width="16" fill="none" stroke-linecap="round"/><rect x="-58" y="420" width="275" height="395" rx="30" fill="#fff8ec" stroke="#9b72ed" stroke-width="16" transform="rotate(-7)"/><g transform="rotate(-7)"><rect x="-40" y="438" width="239" height="64" rx="18" fill="#9b72ed"/><path d="M-10 470l26 20 26-20" stroke="#fff" stroke-width="8" fill="none"/><text x="55" y="482" font-family="Arial" font-size="30" font-weight="800" fill="#fff">Newsletter</text><rect x="-20" y="535" width="220" height="78" rx="15" fill="#fff" stroke="#9be7df" stroke-width="4"/><rect x="0" y="558" width="58" height="42" rx="10" fill="#21c7b2"/><path d="M8 575l21 16 21-16" stroke="#fff" stroke-width="7" fill="none"/><path d="M80 560h95M80 585h65" stroke="#c6c2c2" stroke-width="7" stroke-linecap="round"/><rect x="-20" y="640" width="220" height="78" rx="15" fill="#fff" stroke="#d9c3ff" stroke-width="4"/><path d="M10 678l70-38-23 72-20-28z" fill="#9b72ed"/><path d="M80 665h95M80 690h65" stroke="#c6c2c2" stroke-width="7" stroke-linecap="round"/><rect x="-20" y="745" width="220" height="78" rx="15" fill="#fff" stroke="#ffb2a7" stroke-width="4"/><path d="M10 778h58l-8 32H24z" fill="#ff7f73"/><circle cx="25" cy="815" r="6" fill="#ff7f73"/><circle cx="58" cy="815" r="6" fill="#ff7f73"/><path d="M80 770h95M80 795h65" stroke="#c6c2c2" stroke-width="7" stroke-linecap="round"/></g></g></svg>